<?xml version="1.0" encoding="UTF-8" standalone="no"?>
<!--part of the rodentia icon theme by sixsixfive released under CC0 (https://creativecommons.org/publicdomain/zero/1.0/) on openclipart-->
<svg xmlns="http://www.w3.org/2000/svg" xmlns:xlink="http://www.w3.org/1999/xlink" viewBox="0 0 48 48">
 <defs id="0">
  <linearGradient id="7">
   <stop id="E" stop-color="#2e3436"/>
   <stop id="F" offset="1" stop-color="#2e3436" stop-opacity="0"/>
  </linearGradient>
  <linearGradient id="8">
   <stop id="G" stop-color="#fff" stop-opacity="0.8"/>
   <stop id="H" offset="1" stop-color="#fff" stop-opacity="0"/>
  </linearGradient>
  <linearGradient x1="-6.14" y1="-26.57" x2="12.343" y2="27.786" id="9" xlink:href="#8" gradientUnits="userSpaceOnUse" gradientTransform="translate(-3.4692384e-8,-1.3571381)"/>
  <linearGradient y1="4.888" x2="0" y2="44.24" id="A" xlink:href="#8" gradientUnits="userSpaceOnUse" gradientTransform="matrix(0.9970293,0,0,1.0267028,-1.2283225,-2.5793501)"/>
  <radialGradient cx="25.767" cy="46.5" r="22.02" id="B" xlink:href="#7" gradientUnits="userSpaceOnUse" gradientTransform="matrix(0.81432481,0,0,0.10048121,3.0176647,39.46806)"/>
 </defs>
 <path d="m 41.928773,44.140446 a 17.928773,2.2122689 0 0 1 -35.8575456,0 17.928773,2.2122689 0 1 1 35.8575456,0 z" id="1" opacity="0.6" fill="url(#B)"/>
 <path d="m 45.5,22.642862 a 21.5,21.5 0 0 1 -42.9999998,0 21.5,21.5 0 1 1 42.9999998,0 z" id="2" fill="#183768"/>
 <path d="m 24.008982,2.2012348 c -11.322668,0 -20.4702582,9.1654032 -20.4702582,20.4378022 0,11.272399 9.1475902,20.437803 20.4702582,20.437803 11.322667,0 20.470255,-9.165404 20.470257,-20.437803 0,-11.272399 -9.14759,-20.4378022 -20.470257,-20.4378022 z" id="3" fill="#3465a4"/>
 <g transform="translate(0.00898166,-0.4860193)" id="4">
  <path d="m 23.96875,6.78125 c -1.061424,4.12e-5 -2.082516,0.4262988 -2.84375,1.1875 -0.768868,0.7689007 -1.187505,1.803439 -1.1875,2.875 -5e-6,1.061466 0.441522,2.066563 1.1875,2.8125 0.761238,0.76128 1.78228,1.187533 2.84375,1.1875 1.07159,3.2e-5 2.090147,-0.433874 2.84375,-1.1875 C 27.558457,12.910314 27.999985,11.905203 28,10.84375 27.999985,9.7722029 27.581348,8.7376503 26.8125,7.96875 26.058901,7.2152034 25.040296,6.781291 23.96875,6.78125 z M 26.25,15.625 a 1.1675997,1.1675997 0 0 0 -0.125,0.03125 c -1.253559,0.385726 -3.979035,0.893945 -8,1.40625 a 1.1675997,1.1675997 0 0 0 -1,1.21875 l 0.09375,1.4375 A 1.1675997,1.1675997 0 0 0 18.25,20.8125 l 1.8125,0.15625 0,0.03125 c 0.01231,0.04313 0.156245,0.774446 0.15625,1.84375 l 0,11.6875 c -3e-6,0.452413 -0.105443,0.515094 -0.125,0.53125 -0.087,0.07187 -0.481117,0.266981 -1.15625,0.375 l -0.5625,0.09375 a 1.1675997,1.1675997 0 0 0 -0.21875,0.0625 c -0.251991,0.09 -0.52117,0.249025 -0.75,0.53125 -0.22883,0.282225 -0.343752,0.668246 -0.34375,1 l 0,1.09375 a 1.1675997,1.1675997 0 0 0 0.34375,0.8125 L 17.5,39.125 a 1.1675997,1.1675997 0 0 0 0.84375,0.34375 l 5.5625,-0.09375 c 0.0067,0 0.02452,-2e-6 0.03125,0 1.231442,3.35e-4 3.143685,0.0317 5.71875,0.09375 A 1.1675997,1.1675997 0 0 0 30.5,39.125 l 0.09375,-0.09375 a 1.1675997,1.1675997 0 0 0 0.34375,-0.8125 l 0,-1.09375 c -2.2e-5,-0.34103 -0.1389,-0.75826 -0.375,-1.03125 -0.2361,-0.27299 -0.505214,-0.408198 -0.75,-0.5 a 1.1675997,1.1675997 0 0 0 -0.1875,-0.0625 l -0.5,-0.09375 c -0.668599,-0.133716 -1.06356,-0.315254 -1.1875,-0.40625 -0.03507,-0.02897 -0.125006,-0.0682 -0.125,-0.5 l 0,-11.6875 C 27.81249,21.264624 27.875215,19.322546 27.96875,17 a 1.1675997,1.1675997 0 0 0 0,-0.0625 c -6.6e-5,-0.565832 -0.449506,-1.016019 -0.75,-1.15625 -0.300494,-0.140231 -0.529457,-0.156229 -0.75,-0.15625 a 1.1675997,1.1675997 0 0 0 -0.21875,0 z" id="C" fill="#204a87"/>
  <path d="m 26.660157,22.832674 0,11.695312 c -1e-5,0.640628 0.179677,1.109378 0.539062,1.40625 0.359363,0.281252 0.929676,0.500002 1.710938,0.65625 l 0.492187,0.09375 c 0.249987,0.09375 0.374987,0.242189 0.375,0.445313 l 0,1.101562 -0.09375,0.09375 c -2.593759,-0.0625 -4.515633,-0.09375 -5.765624,-0.09375 l -5.601562,0.09375 -0.09375,-0.09375 0,-1.101562 c -2e-6,-0.218749 0.109373,-0.367186 0.328125,-0.445313 l 0.585937,-0.09375 c 0.781246,-0.124998 1.351559,-0.335935 1.710937,-0.632812 0.359371,-0.296873 0.539058,-0.773435 0.539063,-1.429688 l 0,-11.695312 c -5e-6,-1.140609 -0.08594,-1.914045 -0.257812,-2.320313 -0.17188,-0.406231 -0.437505,-0.624981 -0.796875,-0.65625 l -1.968751,-0.210937 -0.09375,-1.429688 c 4.046869,-0.515604 6.781241,-0.992166 8.203125,-1.429687 0.218738,2.1e-5 0.328113,0.0469 0.328124,0.140625 -0.09376,2.328144 -0.140634,4.296892 -0.140624,5.90625 m -5.554688,-12 c -4e-6,-0.796847 0.281245,-1.4765334 0.84375,-2.0390623 0.562494,-0.56247 1.234368,-0.8437197 2.015625,-0.84375 0.796867,3.03e-5 1.476554,0.28128 2.039063,0.84375 0.56249,0.5625289 0.843738,1.2422153 0.843749,2.0390623 -1.1e-5,0.781277 -0.281259,1.453151 -0.843749,2.015625 -0.562509,0.562525 -1.242196,0.843774 -2.039063,0.84375 -0.781257,2.4e-5 -1.453131,-0.281225 -2.015625,-0.84375 -0.562505,-0.562474 -0.843754,-1.234348 -0.84375,-2.015625" id="D" fill="#eeeeec"/>
 </g>
 <path d="m 24.008982,2.9391774 c -10.957311,0 -19.7536434,8.8264956 -19.7536434,19.6998596 0,10.873365 8.7963324,19.69986 19.7536434,19.69986 10.957311,0 19.753641,-8.826495 19.753643,-19.69986 0,-10.873364 -8.796332,-19.6998596 -19.753643,-19.6998596 z" id="5" opacity="0.8" fill="none" stroke="url(#A)" stroke-linejoin="round" stroke-linecap="square"/>
 <path d="m 24,2.2053619 c -11.322668,-1e-7 -20.46875,9.1651011 -20.46875,20.4375001 0,0.84814 0.086899,1.678723 0.1875,2.5 12.702896,-5.178485 25.666458,-9.199 38.875,-11.03125 C 39.35635,7.0951782 32.261002,2.2053619 24,2.2053619 z" id="6" opacity="0.69" fill="url(#9)"/>
</svg>
